<?xml version="1.0" encoding="UTF-8"?>
<svg version="1.1" xmlns="http://www.w3.org/2000/svg" width="384" height="131">
<path d="M0 0 C126.72 0 253.44 0 384 0 C384 43.23 384 86.46 384 131 C257.28 131 130.56 131 0 131 C0 87.77 0 44.54 0 0 Z " fill="#FCFBFB" transform="translate(0,0)"/>
<path d="M0 0 C1.00675781 0.25394531 2.01351563 0.50789063 3.05078125 0.76953125 C10.93481353 2.71373418 18.77828699 4.36883627 26.8125 5.5625 C41.89223758 7.82718918 58.71044274 10.51343313 68.75390625 23.21875 C69.16511719 23.8065625 69.57632813 24.394375 70 25 C69.67 25.66 69.34 26.32 69 27 C68.56429687 26.51789062 68.12859375 26.03578125 67.6796875 25.5390625 C64.03702931 21.67563714 61.35729937 19.17599254 56 18 C55.01941648 19.45738102 54.04057868 20.91593675 53.0625 22.375 C52.51722656 23.18710937 51.97195312 23.99921875 51.41015625 24.8359375 C49.98906121 26.92719184 49.98906121 26.92719184 49 29 C49.72445312 28.855625 50.44890625 28.71125 51.1953125 28.5625 C56.18491623 27.60449608 60.89267738 26.72392851 66 27 C62.42308124 29.07370733 58.68412584 29.83395631 54.6875 30.6875 C40.54505015 33.85514571 26.71928017 38.35703991 13 43 C12.87625 43.99 12.87625 43.99 12.75 45 C11.75240209 48.99039163 9.92833317 52.38549643 8 56 C9.24716797 55.566875 9.24716797 55.566875 10.51953125 55.125 C11.60621094 54.75375 12.69289063 54.3825 13.8125 54 C14.89144531 53.62875 15.97039063 53.2575 17.08203125 52.875 C20 52 20 52 23 52 C22.71125 52.69867188 22.4225 53.39734375 22.125 54.1171875 C21.75375 55.02726562 21.3825 55.93734375 21 56.875 C20.62875 57.77992187 20.2575 58.68484375 19.875 59.6171875 C18.88509774 61.88983858 18.88509774 61.88983858 19 64 C20.093125 63.484375 21.18625 62.96875 22.3125 62.4375 C26 61 26 61 29 62 C25.37 63.65 21.74 65.3 18 67 C22.39251833 69.02055843 26.15340923 70.40895235 31 71 C31.103125 69.9275 31.20625 68.855 31.3125 67.75 C31.97400493 64.14179128 32.57483421 62.63604977 35 60 C34.84694977 68.87691323 31.15315766 75.37684116 27 83 C12.07404103 82.20338983 12.07404103 82.20338983 5 80 C3.69095703 79.61714844 3.69095703 79.61714844 2.35546875 79.2265625 C-4.22618152 77.11971412 -9.60727837 74.47934225 -14 69 C-15.375 65.5625 -15.375 65.5625 -15 62 C-11.34153274 54.38601044 -2.92609378 47.22072069 4.66015625 43.80078125 C6.39375135 43.20748076 8.13296885 42.63055363 9.875 42.0625 C12.23783893 41.25913476 14.41974418 40.39190945 16.6875 39.375 C20 38 20 38 23 38 C23.495 37.01 23.495 37.01 24 36 C26.0390625 35.21875 26.0390625 35.21875 28.625 34.5 C29.5221875 34.24605469 30.419375 33.99210937 31.34375 33.73046875 C32.2203125 33.48941406 33.096875 33.24835937 34 33 C35.37533113 32.60531871 36.75038642 32.20967319 38.125 31.8125 C39.07375 31.544375 40.0225 31.27625 41 31 C39.35 29.35 37.7 27.7 36 26 C32.54718834 27.15093722 31.61917837 28.3205993 29.3125 31.0625 C28.68988281 31.79597656 28.06726562 32.52945313 27.42578125 33.28515625 C26.95527344 33.85105469 26.48476563 34.41695312 26 35 C26 31.09161134 27.50567876 29.88405893 30 27 C29.01 27 28.02 27 27 27 C27 26.34 27 25.68 27 25 C27.99 24.34 28.98 23.68 30 23 C24.83169994 19.8110489 19.81261371 17.73982995 14 16 C13.67 16.66 13.34 17.32 13 18 C12.40058594 16.67742188 12.40058594 16.67742188 11.7890625 15.328125 C9.96976405 11.9437532 8.00099602 9.53851695 5.375 6.75 C1.08333333 2.16666667 1.08333333 2.16666667 0 0 Z " fill="#C6CAD1" transform="translate(22,20)"/>
<path d="M0 0 C1.51013672 0.38091797 1.51013672 0.38091797 3.05078125 0.76953125 C10.93481353 2.71373418 18.77828699 4.36883627 26.8125 5.5625 C41.89223758 7.82718918 58.71044274 10.51343313 68.75390625 23.21875 C69.16511719 23.8065625 69.57632813 24.394375 70 25 C69.67 25.66 69.34 26.32 69 27 C68.56429687 26.51789062 68.12859375 26.03578125 67.6796875 25.5390625 C64.03702931 21.67563714 61.35729937 19.17599254 56 18 C55.01941648 19.45738102 54.04057868 20.91593675 53.0625 22.375 C52.51722656 23.18710937 51.97195312 23.99921875 51.41015625 24.8359375 C49.98906121 26.92719184 49.98906121 26.92719184 49 29 C49.72445312 28.855625 50.44890625 28.71125 51.1953125 28.5625 C56.18491623 27.60449608 60.89267738 26.72392851 66 27 C62.42265202 29.07395617 58.68399727 29.8322767 54.6875 30.6875 C35.65864335 35.01593448 15.77353783 40.40531239 -0.9296875 50.828125 C-1.61289062 51.21484375 -2.29609375 51.6015625 -3 52 C-3.66 51.67 -4.32 51.34 -5 51 C-0.65060725 46.67374232 2.79384471 43.54132475 8.9140625 42.46484375 C12.16769228 41.73978393 15.03212328 40.25344818 18.01953125 38.8046875 C20 38 20 38 23 38 C23.33 37.34 23.66 36.68 24 36 C26.0390625 35.21875 26.0390625 35.21875 28.625 34.5 C29.5221875 34.24605469 30.419375 33.99210937 31.34375 33.73046875 C32.2203125 33.48941406 33.096875 33.24835937 34 33 C35.37533113 32.60531871 36.75038642 32.20967319 38.125 31.8125 C39.07375 31.544375 40.0225 31.27625 41 31 C39.35 29.35 37.7 27.7 36 26 C32.54718834 27.15093722 31.61917837 28.3205993 29.3125 31.0625 C28.68988281 31.79597656 28.06726562 32.52945313 27.42578125 33.28515625 C26.95527344 33.85105469 26.48476563 34.41695312 26 35 C26 31.09161134 27.50567876 29.88405893 30 27 C29.01 27 28.02 27 27 27 C27 26.34 27 25.68 27 25 C27.99 24.34 28.98 23.68 30 23 C24.83169994 19.8110489 19.81261371 17.73982995 14 16 C13.67 16.66 13.34 17.32 13 18 C12.40058594 16.67742188 12.40058594 16.67742188 11.7890625 15.328125 C9.96976405 11.9437532 8.00099602 9.53851695 5.375 6.75 C1.08333333 2.16666667 1.08333333 2.16666667 0 0 Z " fill="#DD3C3D" transform="translate(22,20)"/>
<path d="M0 0 C5.10820877 4.86496073 6.85821667 9.45155677 7.1875 16.5 C6.95672593 23.2608255 4.69154696 27.57561084 -0.14453125 32.1875 C-3.13351444 33.94634124 -5.36156594 33.93351048 -8.8125 33.9375 C-9.92496094 33.95683594 -11.03742188 33.97617188 -12.18359375 33.99609375 C-16.66199005 33.29994157 -18.99666461 31.2732739 -21.73828125 27.74609375 C-24.69371712 22.11495462 -25.4539083 16.79058399 -24.375 10.5 C-22.52438885 6.20545199 -19.87899127 2.59864524 -16.375 -0.5 C-10.82001864 -2.35166045 -5.36405605 -2.38402491 0 0 Z " fill="#FAFAFA" transform="translate(158.375,52.5)"/>
<path d="M0 0 C2.375 2.375 2.375 2.375 4 5 C4.5775 5.845625 5.155 6.69125 5.75 7.5625 C8.41923699 14.90290172 7.72188227 22.87998714 4.90625 30.1015625 C2.17024556 35.83302008 -1.5536697 38.17209773 -7 41 C-6.13375 41.95712891 -6.13375 41.95712891 -5.25 42.93359375 C-4.5075 43.75988281 -3.765 44.58617187 -3 45.4375 C-2.2575 46.26121094 -1.515 47.08492187 -0.75 47.93359375 C1 50 1 50 1 51 C-2.0625 51.5 -2.0625 51.5 -6 51 C-8.7707984 48.65712414 -11.00090253 46.02598948 -13 43 C-13 42.34 -13 41.68 -13 41 C-13.969375 41.12375 -14.93875 41.2475 -15.9375 41.375 C-21.26825543 41.36416513 -25.12528718 38.42503628 -29 35 C-34.00586095 28.6226703 -34.59812243 21.82160105 -34 14 C-32.93260541 7.42484931 -30.32688902 3.49251107 -25.11328125 -0.625 C-16.85893237 -5.99566693 -8.08257549 -4.81815665 0 0 Z M-25.1875 6.4375 C-29.30076985 12.25281255 -29.79092387 16.9402721 -29 24 C-27.33205787 29.43658977 -24.79022551 32.8517498 -20 36 C-15.06750591 36.89513347 -9.58843943 37.14554288 -4.92578125 35.08203125 C-1.44999459 32.37669604 0.65058558 29.12321074 2 25 C2.84070309 17.64125323 2.63976154 11.03169001 -2 5 C-5.55040324 1.61866358 -8.28412081 0.74000294 -13.0625 0.5625 C-18.64307595 0.81350042 -21.44524676 2.26756067 -25.1875 6.4375 Z " fill="#231F20" transform="translate(163,50)"/>
<path d="M0 0 C2.95353797 2.86403682 4.20164411 6.00366898 5.0625 10 C5.0625 11.98 5.0625 13.96 5.0625 16 C-2.1975 16 -9.4575 16 -16.9375 16 C-14.88379862 23.43296136 -14.88379862 23.43296136 -12.1875 25.5 C-6.67265314 26.72552153 -2.14959202 26.03398713 3.0625 24 C2.8125 26.375 2.8125 26.375 2.0625 29 C-2.46714315 32.03703762 -7.71073616 31.48223119 -12.9375 31 C-17.08629106 29.49937345 -19.16812261 27.01769514 -21.2109375 23.08984375 C-23.08043556 17.71252406 -22.39228315 12.54120957 -20.8125 7.1875 C-15.76807673 -1.38801956 -9.33530706 -3.17797687 0 0 Z " fill="#1B1818" transform="translate(341.9375,60)"/>
<path d="M0 0 C2.5735648 2.19509939 3.824544 3.66402757 5.125 6.8125 C5.125 9.7825 5.125 12.7525 5.125 15.8125 C-1.805 15.8125 -8.735 15.8125 -15.875 15.8125 C-14.53893155 22.28808107 -14.53893155 22.28808107 -12.25 24.75 C-7.74168704 26.76687685 -3.42139842 26.32796614 1.125 24.8125 C1.785 24.4825 2.445 24.1525 3.125 23.8125 C2.875 26.1875 2.875 26.1875 2.125 28.8125 C-2.20762685 31.64910771 -6.88519906 31.44312255 -11.875 30.8125 C-15.5038526 29.09704241 -17.32109712 27.53257374 -19.75 24.375 C-21.64467327 18.37520131 -22.3970691 11.41231422 -19.890625 5.484375 C-15.06841832 -1.60010148 -7.78306952 -3.2147461 0 0 Z " fill="#201C1D" transform="translate(260.875,60.1875)"/>
<path d="M0 0 C0.66 0.33 1.32 0.66 2 1 C1.57847656 1.48210937 1.15695313 1.96421875 0.72265625 2.4609375 C0.17480469 3.09257813 -0.37304688 3.72421875 -0.9375 4.375 C-1.48277344 5.00148438 -2.02804688 5.62796875 -2.58984375 6.2734375 C-4.06958624 7.95632334 -4.06958624 7.95632334 -5 10 C-4.01 10.33 -3.02 10.66 -2 11 C-2.99 11 -3.98 11 -5 11 C-2.41239766 17.79245613 2.45898737 21.26883827 8.8125 24.375 C11.10158958 25.13736056 11.10158958 25.13736056 14 25 C15.4694809 23.23267901 15.4694809 23.23267901 16.6875 21 C17.12449219 20.2575 17.56148437 19.515 18.01171875 18.75 C18.33785156 18.1725 18.66398437 17.595 19 17 C18.0925 17.350625 17.185 17.70125 16.25 18.0625 C13 19 13 19 9 18 C12.96 16.515 12.96 16.515 17 15 C16.195625 14.401875 15.39125 13.80375 14.5625 13.1875 C12 11 12 11 11 8 C14.59391114 9.33488128 17.75490696 10.96022723 21 13 C21.66 12.01 22.32 11.02 23 10 C23.66 10 24.32 10 25 10 C25.495 10.99 25.495 10.99 26 12 C27.093125 11.484375 28.18625 10.96875 29.3125 10.4375 C33 9 33 9 36 10 C30.555 12.475 30.555 12.475 25 15 C29.39251833 17.02055843 33.15340923 18.40895235 38 19 C38.103125 17.9275 38.20625 16.855 38.3125 15.75 C38.97400493 12.14179128 39.57483421 10.63604977 42 8 C41.84694977 16.87691323 38.15315766 23.37684116 34 31 C19.07404103 30.20338983 19.07404103 30.20338983 12 28 C10.69095703 27.61714844 10.69095703 27.61714844 9.35546875 27.2265625 C2.77381848 25.11971412 -2.60727837 22.47934225 -7 17 C-8.375 13.5625 -8.375 13.5625 -8 10 C-5.82686933 6.20564486 -3.08068195 3.08068195 0 0 Z " fill="#BBC2C9" transform="translate(15,72)"/>
<path d="M0 0 C6.14464858 0.96010134 12.26149581 2.85380884 17 7 C15.02 7.99 15.02 7.99 13 9 C13 9.66 13 10.32 13 11 C14.32 10.67 15.64 10.34 17 10 C15.02 12.97 15.02 12.97 13 16 C13.33 16 13.66 16 14 16 C15.05016013 14.85965992 16.06590196 13.68743596 17.0625 12.5 C17.61035156 11.8503125 18.15820312 11.200625 18.72265625 10.53125 C19.14417969 10.0259375 19.56570312 9.520625 20 9 C23.91402949 10.26941497 25.79072873 11.51167694 28 15 C23.83799932 16.61855582 19.74878155 18.08732608 15.4375 19.25 C10.11083667 20.77780266 5.26716598 23.13561491 0.35327148 25.66308594 C-3.61530533 27.63076611 -6.57924858 28.35935556 -11 28 C-10.60167969 27.50371094 -10.20335938 27.00742187 -9.79296875 26.49609375 C-4.21989697 19.35008687 -1.73705657 13.43728595 -1.2109375 4.35546875 C-1 2 -1 2 0 0 Z " fill="#F1847A" transform="translate(36,36)"/>
<path d="M0 0 C1 1 1 1 1.0625 3.5625 C1.041875 4.366875 1.02125 5.17125 1 6 C0.44570312 5.83886719 -0.10859375 5.67773438 -0.6796875 5.51171875 C-3.21742308 4.95204979 -5.52778553 4.8318822 -8.125 4.8125 C-8.99382812 4.79832031 -9.86265625 4.78414062 -10.7578125 4.76953125 C-13.20329726 4.78256395 -13.20329726 4.78256395 -15 7 C-15.83533882 10.32813324 -15.83533882 10.32813324 -15 14 C-12.63615518 16.47501574 -9.90063295 18.20735657 -7 20 C0.42550037 24.76352854 0.42550037 24.76352854 2 28 C2.69850785 32.58773055 2.65234554 35.90499142 0.25 39.9375 C-3.53200739 43.40434011 -6.31710879 44.27840716 -11.4375 44.25 C-12.36433594 44.25515625 -13.29117188 44.2603125 -14.24609375 44.265625 C-17.16054176 43.98451512 -19.34890497 43.21247903 -22 42 C-22 40.02 -22 38.04 -22 36 C-21.31550781 36.32742187 -20.63101563 36.65484375 -19.92578125 36.9921875 C-16.51087941 38.16848212 -13.78968716 38.19777146 -10.1875 38.125 C-9.02605469 38.10695312 -7.86460937 38.08890625 -6.66796875 38.0703125 C-5.78753906 38.04710937 -4.90710938 38.02390625 -4 38 C-3.3997131 32.23399102 -3.3997131 32.23399102 -6 27.3125 C-8.32693214 25.51882314 -10.5606823 24.01044321 -13.0625 22.5 C-17.56475908 19.77316007 -20.30049005 17.19179784 -21.9375 12.0625 C-22.01642761 8.19504697 -21.08422341 6.23413978 -19 3 C-13.60336371 -2.21674842 -6.90115028 -1.15019171 0 0 Z " fill="#221E1F" transform="translate(233,47)"/>
<path d="M0 0 C1 1 1 1 1.0625 3.5625 C1.041875 4.366875 1.02125 5.17125 1 6 C0.15115234 5.76023437 0.15115234 5.76023437 -0.71484375 5.515625 C-3.05284773 4.98807538 -5.16832549 4.79861268 -7.5625 4.75 C-8.32691406 4.72421875 -9.09132813 4.6984375 -9.87890625 4.671875 C-12.04259753 4.8734784 -12.04259753 4.8734784 -13.83984375 6.078125 C-15.2906653 8.11585208 -15.2906653 8.11585208 -15.046875 11.43359375 C-13.72123376 15.94967751 -12.27201206 16.75229551 -8.25 19.0625 C0.5364886 24.52918301 0.5364886 24.52918301 3 29 C3.40668798 32.26512351 3.14838951 34.91299257 2 38 C-0.22156253 40.7159565 -2.85918673 42.42959337 -6 44 C-7.78859511 44.12207871 -9.58228381 44.17548448 -11.375 44.1875 C-12.33148438 44.20167969 -13.28796875 44.21585938 -14.2734375 44.23046875 C-17.03010017 43.99745572 -18.64947395 43.40920164 -21 42 C-21 40.02 -21 38.04 -21 36 C-20.45601563 36.32613281 -19.91203125 36.65226562 -19.3515625 36.98828125 C-16.52987121 38.20226471 -14.43638173 38.23288437 -11.375 38.1875 C-9.93253906 38.17783203 -9.93253906 38.17783203 -8.4609375 38.16796875 C-5.99589549 38.1584765 -5.99589549 38.1584765 -4 37 C-2.89699646 34.22135764 -2.89699646 34.22135764 -3 31 C-6.31960858 26.5356988 -11.05828562 23.83174301 -15.6953125 20.84375 C-19.36817912 17.9054567 -20.82687314 15.19024715 -21.5 10.5625 C-20.8525 5.94906249 -19.37922958 4.15884505 -16 1 C-10.85246982 -1.7533301 -5.57818736 -1.04000103 0 0 Z " fill="#211D1E" transform="translate(122,47)"/>
<path d="M0 0 C1.65 0 3.3 0 5 0 C5 12.87 5 25.74 5 39 C10.61 39 16.22 39 22 39 C22 40.32 22 41.64 22 43 C14.74 43 7.48 43 0 43 C0 28.81 0 14.62 0 0 Z " fill="#151113" transform="translate(177,47)"/>
<path d="M0 0 C1.65 0 3.3 0 5 0 C5.94090806 2.31116252 6.87775669 4.62384457 7.8125 6.9375 C8.07353516 7.57751953 8.33457031 8.21753906 8.60351562 8.87695312 C10.60930969 13.85429397 12.3512272 18.89390818 14 24 C15.12744793 21.12595407 16.25151143 18.25059574 17.375 15.375 C17.69210937 14.56675781 18.00921875 13.75851563 18.3359375 12.92578125 C20.0048933 8.64908201 21.5986057 4.37404889 23 0 C24.98 0 26.96 0 29 0 C28.70754395 0.72590332 28.41508789 1.45180664 28.11376953 2.19970703 C26.78234644 5.5074035 25.45364895 8.81618829 24.125 12.125 C23.66480469 13.26710938 23.20460938 14.40921875 22.73046875 15.5859375 C22.28574219 16.69453125 21.84101563 17.803125 21.3828125 18.9453125 C20.97434082 19.96125488 20.56586914 20.97719727 20.14501953 22.02392578 C19.00378346 24.99016622 17.9812391 27.97746831 17 31 C15.02 31 13.04 31 11 31 C9.59141891 27.22904352 8.18565987 23.45704831 6.7824707 19.68408203 C6.30504948 18.40156899 5.82686748 17.11933887 5.34790039 15.83740234 C4.65830191 13.99131212 3.97169387 12.14410571 3.28515625 10.296875 C2.87144775 9.18666992 2.45773926 8.07646484 2.03149414 6.93261719 C1.2190423 4.62275411 0.53055054 2.38620817 0 0 Z " fill="#262223" transform="translate(290,59)"/>
<path d="M0 0 C-1.98 2.97 -1.98 2.97 -4 6 C-3.21625 5.01 -2.4325 4.02 -1.625 3 C-0.75875 2.01 0.1075 1.02 1 0 C1.66 0 2.32 0 3 0 C3 0.66 3 1.32 3 2 C3.61875 2.28875 4.2375 2.5775 4.875 2.875 C7 4 7 4 9 6 C7.35 6.99 5.7 7.98 4 9 C5.98 8.67 7.96 8.34 10 8 C8.7508258 11.45925163 7.32472205 14.14693203 5 17 C-2.20767766 16.6303755 -7.72950001 12.38125608 -12.5625 7.3125 C-14 5 -14 5 -14 2 C-12.04396149 1.47061343 -10.08507711 0.95173199 -8.125 0.4375 C-7.03445312 0.14746094 -5.94390625 -0.14257812 -4.8203125 -0.44140625 C-2 -1 -2 -1 0 0 Z " fill="#EFF1F2" transform="translate(24,81)"/>
<path d="M0 0 C2.73687893 1.19983518 5.20748052 2.59226033 7.7265625 4.1953125 C6.25150021 7.40228873 4.43850802 10.0862221 2.2890625 12.8828125 C1.69222656 13.67042969 1.09539062 14.45804688 0.48046875 15.26953125 C-1.2734375 17.1953125 -1.2734375 17.1953125 -4.2734375 18.1953125 C-8.27734375 13.80078125 -8.27734375 13.80078125 -9.2734375 12.1953125 C-8.9434375 11.2053125 -8.6134375 10.2153125 -8.2734375 9.1953125 C-5.55078125 8.02734375 -5.55078125 8.02734375 -2.2109375 7.0078125 C-0.55384766 6.49154297 -0.55384766 6.49154297 1.13671875 5.96484375 C1.99136719 5.71089844 2.84601563 5.45695312 3.7265625 5.1953125 C1.95544406 5.67342427 0.18467767 6.1528403 -1.5859375 6.6328125 C-2.57207031 6.89964844 -3.55820313 7.16648437 -4.57421875 7.44140625 C-6.48861276 7.97610675 -8.38777365 8.56675788 -10.2734375 9.1953125 C-10.2734375 7.8753125 -10.2734375 6.5553125 -10.2734375 5.1953125 C-10.9334375 6.5153125 -11.5934375 7.8353125 -12.2734375 9.1953125 C-18.0234375 7.4453125 -18.0234375 7.4453125 -20.2734375 5.1953125 C-13.2461958 -0.60077859 -8.87658409 -2.84720622 0 0 Z " fill="#FAF2F3" transform="translate(69.2734375,31.8046875)"/>
<path d="M0 0 C1.03040167 2.28779038 2.04952018 4.57951136 3.0625 6.875 C3.35705078 7.52597656 3.65160156 8.17695313 3.95507812 8.84765625 C4.69661513 10.54010541 5.35439001 12.26868575 6 14 C5.67 14.66 5.34 15.32 5 16 C0.66209686 15.36087321 -3.67012667 14.69144453 -8 14 C-8.98484375 13.84402344 -9.9696875 13.68804687 -10.984375 13.52734375 C-11.85578125 13.37394531 -12.7271875 13.22054688 -13.625 13.0625 C-14.40101562 12.92972656 -15.17703125 12.79695313 -15.9765625 12.66015625 C-18.3286503 11.89277625 -19.40791361 10.86081435 -21 9 C-7.46311475 0 -7.46311475 0 0 0 Z " fill="#E1DEE1" transform="translate(43,10)"/>
<path d="M0 0 C1.65 0 3.3 0 5 0 C5.33 1.32 5.66 2.64 6 4 C6.53625 3.34 7.0725 2.68 7.625 2 C10 0 10 0 13.25 -0.25 C14.61125 -0.12625 14.61125 -0.12625 16 0 C16 1.65 16 3.3 16 5 C15.0925 4.896875 14.185 4.79375 13.25 4.6875 C9.94291347 4.69161279 9.94291347 4.69161279 7.84375 6.84375 C5.17320737 11.41535688 5.32695309 15.60417497 5.25 20.8125 C5.22035156 21.79154297 5.19070313 22.77058594 5.16015625 23.77929688 C5.08970798 26.18627953 5.03688975 28.5923079 5 31 C3.35 31 1.7 31 0 31 C0 20.77 0 10.54 0 0 Z " fill="#2C292A" transform="translate(272,59)"/>
<path d="M0 0 C0.495 0.99 0.495 0.99 1 2 C0.566875 2.56589844 0.13375 3.13179687 -0.3125 3.71484375 C-0.869375 4.44832031 -1.42625 5.18179688 -2 5.9375 C-2.556875 6.66839844 -3.11375 7.39929687 -3.6875 8.15234375 C-5.09651945 9.75814368 -5.09651945 9.75814368 -5 11 C-4.27554688 10.855625 -3.55109375 10.71125 -2.8046875 10.5625 C2.18491623 9.60449608 6.89267738 8.72392851 12 9 C8.42265202 11.07395617 4.68399727 11.8322767 0.6875 12.6875 C-18.34135665 17.01593448 -38.22646217 22.40531239 -54.9296875 32.828125 C-55.61289062 33.21484375 -56.29609375 33.6015625 -57 34 C-57.66 33.67 -58.32 33.34 -59 33 C-54.65060725 28.67374232 -51.20615529 25.54132475 -45.0859375 24.46484375 C-41.83230772 23.73978393 -38.96787672 22.25344818 -35.98046875 20.8046875 C-34 20 -34 20 -31 20 C-30.67 19.34 -30.34 18.68 -30 18 C-27.9609375 17.21875 -27.9609375 17.21875 -25.375 16.5 C-24.4778125 16.24605469 -23.580625 15.99210937 -22.65625 15.73046875 C-21.7796875 15.48941406 -20.903125 15.24835937 -20 15 C-18.62466887 14.60531871 -17.24961358 14.20967319 -15.875 13.8125 C-14.92625 13.544375 -13.9775 13.27625 -13 13 C-14.32 11.02 -15.64 9.04 -17 7 C-15.125 7.25 -15.125 7.25 -13 8 C-11.75 10.0625 -11.75 10.0625 -11 12 C-6.30435607 8.68542782 -3.27530896 4.63720719 0 0 Z " fill="#D3363D" transform="translate(76,38)"/>
<path d="M0 0 C0.886875 0.103125 1.77375 0.20625 2.6875 0.3125 C2.6875 1.9625 2.6875 3.6125 2.6875 5.3125 C1.78 5.23 0.8725 5.1475 -0.0625 5.0625 C-3.36120968 5.02173991 -3.36120968 5.02173991 -5.625 7.0625 C-8.1334644 10.4071192 -8.42378551 13.53821022 -8.62890625 17.640625 C-8.67080078 18.43984375 -8.71269531 19.2390625 -8.75585938 20.0625 C-8.81483398 21.3 -8.81483398 21.3 -8.875 22.5625 C-8.91818359 23.40296875 -8.96136719 24.2434375 -9.00585938 25.109375 C-9.11158543 27.17690671 -9.21251295 29.24468281 -9.3125 31.3125 C-10.6325 31.3125 -11.9525 31.3125 -13.3125 31.3125 C-13.3125 21.4125 -13.3125 11.5125 -13.3125 1.3125 C-11.9925 1.3125 -10.6725 1.3125 -9.3125 1.3125 C-8.9825 2.6325 -8.6525 3.9525 -8.3125 5.3125 C-7.61125 4.4875 -6.91 3.6625 -6.1875 2.8125 C-3.3125 0.3125 -3.3125 0.3125 0 0 Z " fill="#1A1416" transform="translate(366.3125,58.6875)"/>
<path d="M0 0 C1.58467728 0.28427417 3.1677057 0.57774818 4.75 0.875 C6.07257812 1.11863281 6.07257812 1.11863281 7.421875 1.3671875 C9.89490127 1.97420304 11.82687458 2.68235835 14 4 C14.875 5.875 14.875 5.875 15 8 C14.0625 10.25 14.0625 10.25 13 12 C7.84828377 12.09038099 3.08086796 11.84681133 -2 11 C-2 10.34 -2 9.68 -2 9 C-2.99 9 -3.98 9 -5 9 C-3.50163895 5.88801935 -1.80066242 2.9465385 0 0 Z " fill="#EEEFF1" transform="translate(36,89)"/>
<path d="M0 0 C5.625 2.25 5.625 2.25 8 6 C-7.42857143 12 -7.42857143 12 -12 12 C-12.66 10.02 -13.32 8.04 -14 6 C-12.54735962 5.1361871 -11.0876837 4.28419546 -9.625 3.4375 C-8.40683594 2.72400391 -8.40683594 2.72400391 -7.1640625 1.99609375 C-6.44992188 1.66738281 -5.73578125 1.33867188 -5 1 C-4.34 1.33 -3.68 1.66 -3 2 C-4.65 4.31 -6.3 6.62 -8 9 C-5.36 6.03 -2.72 3.06 0 0 Z " fill="#FDF7F7" transform="translate(56,45)"/>
<path d="M0 0 C2.4375 1.6875 2.4375 1.6875 4 4 C4 5.65 4 7.3 4 9 C-1.61 9 -7.22 9 -13 9 C-12 4 -12 4 -9.875 1.6875 C-6.24065806 -0.44570071 -4.151996 -0.60392669 0 0 Z " fill="#F6F6F6" transform="translate(338,63)"/>
<path d="M0 0 C2.4375 1.6875 2.4375 1.6875 4 4 C4 5.65 4 7.3 4 9 C-1.28 9 -6.56 9 -12 9 C-11 3 -11 3 -9.375 1.125 C-6.02604821 -0.46134558 -3.65973254 -0.45746657 0 0 Z " fill="#F7F7F7" transform="translate(257,63)"/>
<path d="M0 0 C3.83926361 0.27423311 5.82042203 0.53936774 8.875 3 C10.625 5.1875 10.625 5.1875 10.625 9.1875 C0.18569364 11.17593931 0.18569364 11.17593931 -3.25 9 C-4.75832602 6.56991919 -4.73523622 4.99734248 -4.375 2.1875 C-2.375 0.1875 -2.375 0.1875 0 0 Z " fill="#C2C1C1" transform="translate(244.375,111.8125)"/>
<path d="M0 0 C3.3 0 6.6 0 10 0 C9.75378906 0.72703125 9.50757813 1.4540625 9.25390625 2.203125 C8.69202874 5.09999269 8.69202874 5.09999269 10.65234375 7.421875 C11.40644531 8.19015625 12.16054687 8.9584375 12.9375 9.75 C17 13.95883362 17 13.95883362 17 15 C13.9375 15.5 13.9375 15.5 10 15 C7.2292016 12.65712414 4.99909747 10.02598948 3 7 C3 6.34 3 5.68 3 5 C0.69 5 -1.62 5 -4 5 C-3.34 4.360625 -2.68 3.72125 -2 3.0625 C0.11602431 1.35917681 0.11602431 1.35917681 0 0 Z " fill="#2A2728" transform="translate(147,86)"/>
<path d="M0 0 C15.72423333 0.80851554 31.18021054 3.97786505 43 15 C44.03356127 16.30748953 45.04463147 17.63433213 46 19 C45.67 19.66 45.34 20.32 45 21 C44.56429687 20.51789062 44.12859375 20.03578125 43.6796875 19.5390625 C39.95563137 15.58930599 37.33934843 13.45618594 32 12 C31.59265625 11.53335938 31.1853125 11.06671875 30.765625 10.5859375 C28.15189923 8.23821037 25.37008464 7.76666823 22 6.875 C20.7625 6.54242188 19.525 6.20984375 18.25 5.8671875 C17.1775 5.58101562 16.105 5.29484375 15 5 C14.01 4.67 13.02 4.34 12 4 C9.9403871 3.4678644 7.87753085 2.94820656 5.8125 2.4375 C4.72582031 2.16808594 3.63914063 1.89867188 2.51953125 1.62109375 C1.68808594 1.41613281 0.85664062 1.21117188 0 1 C0 0.67 0 0.34 0 0 Z " fill="#AF1938" transform="translate(46,26)"/>
<path d="M0 0 C3.5625 0.1875 3.5625 0.1875 5.5625 2.1875 C5.896228 5.32454316 6.09099028 7.35304166 4.375 10.0625 C1.90742892 11.59409584 0.41730169 11.61572025 -2.4375 11.1875 C-4.3125 10.125 -4.3125 10.125 -5.4375 8.1875 C-4.89124449 0.26679515 -4.89124449 0.26679515 0 0 Z " fill="#919090" transform="translate(150.4375,30.8125)"/>
<path d="M0 0 C3.5 -0.375 3.5 -0.375 7 0 C9 3 9 3 8.75 6.0625 C8 9 8 9 6 11 C2.375 10.625 2.375 10.625 -1 10 C-2.25 3.375 -2.25 3.375 0 0 Z " fill="#919090" transform="translate(169,31)"/>
<path d="M0 0 C0.66 0.33 1.32 0.66 2 1 C1.57847656 1.48210937 1.15695313 1.96421875 0.72265625 2.4609375 C0.17480469 3.09257813 -0.37304688 3.72421875 -0.9375 4.375 C-1.48277344 5.00148438 -2.02804688 5.62796875 -2.58984375 6.2734375 C-4.06958624 7.95632334 -4.06958624 7.95632334 -5 10 C-4.01 10.33 -3.02 10.66 -2 11 C-2.99 11 -3.98 11 -5 11 C-2.41546094 17.78441503 2.43763667 21.21881834 8.75 24.375 C11.25314649 25.17842924 11.25314649 25.17842924 15 25 C15 25.66 15 26.32 15 27 C15.66 27.33 16.32 27.66 17 28 C8.30209977 27.36742544 0.79480022 24.66788709 -5.66796875 18.62890625 C-8.07654076 15.6835264 -8.32312039 13.7481965 -8 10 C-5.83586519 6.20242586 -3.07914599 3.07914599 0 0 Z " fill="#9DA6B1" transform="translate(15,72)"/>
<path d="M0 0 C1.6254308 0.14095064 3.25034051 0.28792087 4.875 0.4375 C5.77992187 0.51871094 6.68484375 0.59992187 7.6171875 0.68359375 C10 1 10 1 12 2 C12.4140625 4.06640625 12.4140625 4.06640625 12.625 6.5625 C12.69976562 7.38878906 12.77453125 8.21507812 12.8515625 9.06640625 C12.90054688 9.70449219 12.94953125 10.34257813 13 11 C6.25 10.25 6.25 10.25 4 8 C4 7.67 4 7.34 4 7 C3.34 7 2.68 7 2 7 C1.34 4.69 0.68 2.38 0 0 Z " fill="#FBEDED" transform="translate(33,25)"/>
<path d="M0 0 C0.33 2.97 0.66 5.94 1 9 C-0.60256108 9.50512244 -2.20711792 10.00391627 -3.8125 10.5 C-4.70582031 10.7784375 -5.59914063 11.056875 -6.51953125 11.34375 C-9 12 -9 12 -12 12 C-10.82763323 7.16398706 -5.40844892 0 0 0 Z " fill="#FCFBFB" transform="translate(22,70)"/>
<path d="M0 0 C1.58467728 0.28427417 3.1677057 0.57774818 4.75 0.875 C6.07257812 1.11863281 6.07257812 1.11863281 7.421875 1.3671875 C9.86947744 1.96796264 11.80599857 2.77997117 14 4 C11.39741676 4.83857688 8.79314353 5.67103344 6.1875 6.5 C5.08051758 6.85771484 5.08051758 6.85771484 3.95117188 7.22265625 C0.86744804 8.19940136 -1.74495809 9 -5 9 C-3.50163895 5.88801935 -1.80066242 2.9465385 0 0 Z " fill="#FCFCFC" transform="translate(36,89)"/>
<path d="M0 0 C-2.64 3.63 -5.28 7.26 -8 11 C-13 7 -13 7 -13.8125 4.25 C-13.874375 3.5075 -13.93625 2.765 -14 2 C-12.04396149 1.47061343 -10.08507711 0.95173199 -8.125 0.4375 C-7.03445312 0.14746094 -5.94390625 -0.14257812 -4.8203125 -0.44140625 C-2 -1 -2 -1 0 0 Z " fill="#FAFAFA" transform="translate(24,81)"/>
<path d="M0 0 C0 3.13847309 -0.48962669 4.38459003 -1.875 7.125 C-2.22304688 7.82882813 -2.57109375 8.53265625 -2.9296875 9.2578125 C-4 11 -4 11 -6 12 C-8.31 10.35 -10.62 8.7 -13 7 C-12.67 6.01 -12.34 5.02 -12 4 C-9.27734375 2.83203125 -9.27734375 2.83203125 -5.9375 1.8125 C-4.83277344 1.46832031 -3.72804688 1.12414062 -2.58984375 0.76953125 C-1.73519531 0.51558594 -0.88054688 0.26164062 0 0 Z " fill="#FBFBFB" transform="translate(41,74)"/>
<path d="M0 0 C1.98 0 3.96 0 6 0 C3.03 7.92 3.03 7.92 0 16 C-1.65 15.67 -3.3 15.34 -5 15 C-3.35 10.05 -1.7 5.1 0 0 Z " fill="#252022" transform="translate(313,59)"/>
<path d="M0 0 C0.33 0 0.66 0 1 0 C0.84694977 8.87691323 -2.84684234 15.37684116 -7 23 C-8.65 23 -10.3 23 -12 23 C-11.67 22.34 -11.34 21.68 -11 21 C-9.68 21 -8.36 21 -7 21 C-6.01 17.535 -6.01 17.535 -5 14 C-5.99 13.67 -6.98 13.34 -8 13 C-11 12 -14 11 -17 10 C-16.67 9.34 -16.34 8.68 -16 8 C-11.71 8.99 -7.42 9.98 -3 11 C-2.87625 9.9275 -2.7525 8.855 -2.625 7.75 C-2.10356064 4.62136385 -1.59911746 2.66519576 0 0 Z " fill="#CFD3D7" transform="translate(56,80)"/>
<path d="M0 0 C-1.2491742 3.45925163 -2.67527795 6.14693203 -5 9 C-9.3890815 8.48964169 -12.33708062 7.47785723 -16 5 C-13.20392978 3.53508849 -10.42993234 2.37754078 -7.4375 1.375 C-6.29087891 0.98441406 -6.29087891 0.98441406 -5.12109375 0.5859375 C-3 0 -3 0 0 0 Z " fill="#F7F7F8" transform="translate(34,89)"/>
<path d="M0 0 C3.00765886 2.84936103 5.27845212 5.23511958 7 9 C5.56445975 9.50559908 4.1264798 10.0042749 2.6875 10.5 C1.88699219 10.7784375 1.08648437 11.056875 0.26171875 11.34375 C-2 12 -2 12 -5 12 C-3.68938409 7.76570244 -2.05643741 3.92592596 0 0 Z " fill="#FCFCFC" transform="translate(35,64)"/>
<path d="M0 0 C2.33944736 0.28730055 4.6739143 0.61936779 7 1 C7 3.31 7 5.62 7 8 C4.6875 9.125 4.6875 9.125 2 10 C1.01 9.34 0.02 8.68 -1 8 C-1.25 4.4375 -1.25 4.4375 -1 1 C-0.67 0.67 -0.34 0.34 0 0 Z " fill="#A1A1A1" transform="translate(170,112)"/>
<path d="M0 0 C1.98 0 3.96 0 6 0 C6 3.96 6 7.92 6 12 C5.67 11.01 5.34 10.02 5 9 C3.68 9.33 2.36 9.66 1 10 C-0.5625 8.3125 -0.5625 8.3125 -2 6 C-1.58974359 1.58974359 -1.58974359 1.58974359 0 0 Z " fill="#949393" transform="translate(134,112)"/>
<path d="M0 0 C0.99 0.66 1.98 1.32 3 2 C3.721875 1.835 4.44375 1.67 5.1875 1.5 C9.20583776 0.78562884 12.09410724 1.87457327 16 3 C14.1378087 4.94315614 12.6282589 5.91774219 9.94140625 6.26953125 C5.24466179 6.35665467 1.39618062 5.80356128 -3 4 C-2.01 2.68 -1.02 1.36 0 0 Z " fill="#FAFAFA" transform="translate(27,17)"/>
<path d="M0 0 C0.9590625 0.4640625 0.9590625 0.4640625 1.9375 0.9375 C5.92049104 2.31935403 9.81650849 2.6536543 14 3 C13.67 4.32 13.34 5.64 13 7 C13.99 7.33 14.98 7.66 16 8 C14.27119018 8.05449838 12.54187288 8.09301688 10.8125 8.125 C9.84957031 8.14820312 8.88664063 8.17140625 7.89453125 8.1953125 C4.87187222 7.9913544 2.73230015 7.26874632 0 6 C0 4.02 0 2.04 0 0 Z " fill="#383535" transform="translate(211,83)"/>
<path d="M0 0 C0.56203125 0.31710938 1.1240625 0.63421875 1.703125 0.9609375 C4.15196317 2.06874525 6.08387855 2.38975399 8.75 2.625 C9.54921875 2.69976562 10.3484375 2.77453125 11.171875 2.8515625 C11.77515625 2.90054688 12.3784375 2.94953125 13 3 C13 3.99 13 4.98 13 6 C13.66 6.66 14.32 7.32 15 8 C13.25034642 8.05429959 11.50020213 8.09292823 9.75 8.125 C8.77546875 8.14820312 7.8009375 8.17140625 6.796875 8.1953125 C3.9803502 7.99862781 2.39050964 7.44568916 0 6 C0 4.02 0 2.04 0 0 Z " fill="#302D2E" transform="translate(101,83)"/>
<path d="M0 0 C0.66 0 1.32 0 2 0 C2.02913821 3.5624827 2.04684529 7.12493454 2.0625 10.6875 C2.07087891 11.69490234 2.07925781 12.70230469 2.08789062 13.74023438 C2.09111328 14.71669922 2.09433594 15.69316406 2.09765625 16.69921875 C2.10289307 17.59471436 2.10812988 18.49020996 2.11352539 19.4128418 C1.99840198 22.03641759 1.58234285 24.44293053 1 27 C0.01 27 -0.98 27 -2 27 C-2 26.34 -2 25.68 -2 25 C-2.66 24.67 -3.32 24.34 -4 24 C-3.26136719 23.41412109 -3.26136719 23.41412109 -2.5078125 22.81640625 C-0.4932747 20.38956667 -0.72266858 19.05133345 -0.875 15.9375 C-1.03333534 10.53970438 -0.65050843 5.35507835 0 0 Z " fill="#EEECEC" transform="translate(57,55)"/>
<path d="M0 0 C0.66 0.33 1.32 0.66 2 1 C0.77036367 4.68890899 -1.03683203 7.64361605 -3 11 C-8.75 9.25 -8.75 9.25 -11 7 C-9.21475351 5.80286983 -7.4215972 4.61752721 -5.625 3.4375 C-4.62726562 2.77621094 -3.62953125 2.11492188 -2.6015625 1.43359375 C-1.74304687 0.96050781 -0.88453125 0.48742187 0 0 Z " fill="#F9E7E8" transform="translate(60,30)"/>
<path d="M0 0 C1.6328125 1.48828125 1.6328125 1.48828125 3 3 C2.50628906 3.40992188 2.01257812 3.81984375 1.50390625 4.2421875 C0.86324219 4.78101563 0.22257812 5.31984375 -0.4375 5.875 C-1.07558594 6.40867187 -1.71367188 6.94234375 -2.37109375 7.4921875 C-4.10805004 8.9222757 -4.10805004 8.9222757 -5 11 C-6.98 11 -8.96 11 -11 11 C-10.57847656 10.44570313 -10.15695313 9.89140625 -9.72265625 9.3203125 C-9.17480469 8.59585938 -8.62695312 7.87140625 -8.0625 7.125 C-7.51722656 6.40570313 -6.97195312 5.68640625 -6.41015625 4.9453125 C-4.96035376 3.05642921 -4.96035376 3.05642921 -4 1 C-2.125 0.1875 -2.125 0.1875 0 0 Z " fill="#E9989D" transform="translate(36,53)"/>
<path d="M0 0 C3 1 3 1 4.38671875 3.28515625 C4.81597656 4.20167969 5.24523437 5.11820313 5.6875 6.0625 C6.34298828 7.44115234 6.34298828 7.44115234 7.01171875 8.84765625 C7.33785156 9.55792969 7.66398437 10.26820312 8 11 C8.99 9.02 9.98 7.04 11 5 C12 8 12 8 11.22265625 10.04296875 C10.83980469 10.75066406 10.45695312 11.45835938 10.0625 12.1875 C9.68222656 12.90292969 9.30195312 13.61835937 8.91015625 14.35546875 C8.60980469 14.89816406 8.30945313 15.44085938 8 16 C5.13546142 12.58983503 3.65296434 9.09305456 2 5 C1.67 8.63 1.34 12.26 1 16 C0.67 16 0.34 16 0 16 C0 10.72 0 5.44 0 0 Z " fill="#171616" transform="translate(103,26)"/>
<path d="M0 0 C4.51617599 -0.07654536 8.59085217 -0.10228696 13 1 C11.67368911 3.65262179 10.14656892 4.21099749 7.5625 5.625 C6.75941406 6.07101563 5.95632812 6.51703125 5.12890625 6.9765625 C3 8 3 8 1 8 C0.67 5.36 0.34 2.72 0 0 Z " fill="#FAEBEB" transform="translate(46,28)"/>
<path d="M0 0 C0.66 0.33 1.32 0.66 2 1 C-0.97 4.96 -0.97 4.96 -4 9 C-2.68 9.33 -1.36 9.66 0 10 C-2.31 10.33 -4.62 10.66 -7 11 C-7.66 9.02 -8.32 7.04 -9 5 C-7.54735962 4.1361871 -6.0876837 3.28419546 -4.625 2.4375 C-3.40683594 1.72400391 -3.40683594 1.72400391 -2.1640625 0.99609375 C-1.44992188 0.66738281 -0.73578125 0.33867188 0 0 Z " fill="#FCE9E8" transform="translate(51,46)"/>
<path d="M0 0 C0.78375 0.04125 1.5675 0.0825 2.375 0.125 C2.705 1.775 3.035 3.425 3.375 5.125 C1.395 5.455 -0.585 5.785 -2.625 6.125 C-0.645 6.785 1.335 7.445 3.375 8.125 C3.045 8.785 2.715 9.445 2.375 10.125 C-2.375 9.375 -2.375 9.375 -4.625 7.125 C-4.875 4.625 -4.875 4.625 -4.625 2.125 C-2.625 0.125 -2.625 0.125 0 0 Z " fill="#747474" transform="translate(244.625,111.875)"/>
<path d="M0 0 C1.66611905 -0.042721 3.33382885 -0.04063832 5 0 C6 1 6 1 6.09765625 3.06640625 C6.08605469 3.89011719 6.07445312 4.71382813 6.0625 5.5625 C6.05347656 6.38878906 6.04445312 7.21507813 6.03515625 8.06640625 C6.01775391 9.02353516 6.01775391 9.02353516 6 10 C3.69 9.67 1.38 9.34 -1 9 C-0.67 7.35 -0.34 5.7 0 4 C1.32 3.67 2.64 3.34 4 3 C4 2.34 4 1.68 4 1 C2.68 0.67 1.36 0.34 0 0 Z " fill="#838282" transform="translate(150,112)"/>
<path d="M0 0 C-3.43296095 1.67613728 -6.87206883 3.33925697 -10.3125 5 C-11.28896484 5.47695312 -12.26542969 5.95390625 -13.27148438 6.4453125 C-14.20927734 6.89648438 -15.14707031 7.34765625 -16.11328125 7.8125 C-17.40939331 8.44091797 -17.40939331 8.44091797 -18.73168945 9.08203125 C-21 10 -21 10 -24 10 C-18.84311658 4.87054681 -15.16307051 2.31322959 -8 1 C-7.2575 0.608125 -6.515 0.21625 -5.75 -0.1875 C-3.46526892 -1.248268 -2.35863566 -0.6871232 0 0 Z " fill="#C81D2F" transform="translate(41,61)"/>
<path d="M0 0 C1.2065625 0.0309375 1.2065625 0.0309375 2.4375 0.0625 C3.0975 1.7125 3.7575 3.3625 4.4375 5.0625 C2.1275 5.0625 -0.1825 5.0625 -2.5625 5.0625 C-2.2325 5.7225 -1.9025 6.3825 -1.5625 7.0625 C0.96483235 7.71805119 0.96483235 7.71805119 3.4375 8.0625 C3.1075 8.7225 2.7775 9.3825 2.4375 10.0625 C-2.4375 9.1875 -2.4375 9.1875 -3.5625 8.0625 C-3.6875 4.5625 -3.6875 4.5625 -3.5625 1.0625 C-2.5625 0.0625 -2.5625 0.0625 0 0 Z " fill="#6E6E6E" transform="translate(207.5625,111.9375)"/>
<path d="M0 0 C0.33 2.31 0.66 4.62 1 7 C-0.62580966 6.88601335 -2.25067157 6.75844341 -3.875 6.625 C-4.77992187 6.55539063 -5.68484375 6.48578125 -6.6171875 6.4140625 C-9 6 -9 6 -11 4 C-9.5437455 3.32880451 -8.08492133 2.66318193 -6.625 2 C-5.81289063 1.62875 -5.00078125 1.2575 -4.1640625 0.875 C-2 0 -2 0 0 0 Z " fill="#FDFDFD" transform="translate(42,11)"/>
<path d="M0 0 C0 0.66 0 1.32 0 2 C0.99 2.33 1.98 2.66 3 3 C1.4221875 3.433125 1.4221875 3.433125 -0.1875 3.875 C-3.86177831 4.88930551 -3.86177831 4.88930551 -6.75 6.125 C-9 7 -9 7 -12 7 C-11.04578192 5.85073734 -10.08647955 4.70569459 -9.125 3.5625 C-8.59132813 2.92441406 -8.05765625 2.28632812 -7.5078125 1.62890625 C-4.87757781 -1.21256491 -3.54250274 -1.06275082 0 0 Z " fill="#252021" transform="translate(333,60)"/>
<path d="M0 0 C1.64630328 0.14042877 3.29204179 0.28749329 4.9375 0.4375 C6.31228516 0.55931641 6.31228516 0.55931641 7.71484375 0.68359375 C10 1 10 1 11 2 C11 3.65 11 5.3 11 7 C7.37 6.34 3.74 5.68 0 5 C0.33 4.01 0.66 3.02 1 2 C0.67 1.34 0.34 0.68 0 0 Z " fill="#353233" transform="translate(223,46)"/>
<path d="M0 0 C-0.33 3.3 -0.66 6.6 -1 10 C-5.5 7.75 -5.5 7.75 -7 4 C-3.375 0 -3.375 0 0 0 Z " fill="#FDFBFC" transform="translate(45,60)"/>
<path d="M0 0 C1.64630328 0.14042877 3.29204179 0.28749329 4.9375 0.4375 C6.31228516 0.55931641 6.31228516 0.55931641 7.71484375 0.68359375 C10 1 10 1 11 2 C11 3.65 11 5.3 11 7 C7.37 6.34 3.74 5.68 0 5 C0.33 4.01 0.66 3.02 1 2 C0.67 1.34 0.34 0.68 0 0 Z " fill="#252223" transform="translate(112,46)"/>
<path d="M0 0 C8.3124321 0.42741229 15.9901375 1.74190046 24 4 C19.72893163 6.47874504 16.68914266 6.04528805 12 5 C10.65022151 4.36729133 9.31647119 3.69937532 8 3 C5.34947277 2.24490794 2.68529625 1.62656912 0 1 C0 0.67 0 0.34 0 0 Z " fill="#C51D2F" transform="translate(46,26)"/>
<path d="M0 0 C1.16917969 0.27714844 2.33835937 0.55429687 3.54296875 0.83984375 C5.09113523 1.20577401 6.63931291 1.57165693 8.1875 1.9375 C8.95642578 2.11990234 9.72535156 2.30230469 10.51757812 2.49023438 C14.33440092 3.39120113 18.14656426 4.26637997 22 5 C22 5.33 22 5.66 22 6 C20.741875 6.020625 19.48375 6.04125 18.1875 6.0625 C17.47980469 6.07410156 16.77210937 6.08570313 16.04296875 6.09765625 C14 6 14 6 11 5 C10.67 5.66 10.34 6.32 10 7 C10 6.01 10 5.02 10 4 C9.01 4.33 8.02 4.66 7 5 C7.66 6.32 8.32 7.64 9 9 C7.87105124 8.06725891 6.74699124 7.12859878 5.625 6.1875 C4.99851562 5.66542969 4.37203125 5.14335937 3.7265625 4.60546875 C2 3 2 3 0 0 Z " fill="#C12E41" transform="translate(22,20)"/>
<path d="M0 0 C-1.33250791 3.5875213 -2.830717 6.8364623 -5 10 C-5.66 10 -6.32 10 -7 10 C-7.75 7.25 -7.75 7.25 -8 4 C-5.39671014 0.33611056 -4.61250299 0 0 0 Z " fill="#FAF8F8" transform="translate(32,66)"/>
<path d="M0 0 C1.32 0 2.64 0 4 0 C4 0.99 4 1.98 4 3 C4.66 3 5.32 3 6 3 C6.33 4.65 6.66 6.3 7 8 C8.65 7.34 10.3 6.68 12 6 C11.01 7.485 11.01 7.485 10 9 C10.33 9.66 10.66 10.32 11 11 C9.35 11.33 7.7 11.66 6 12 C3.95757326 8.75068473 2.3573997 5.5874135 1 2 C0.67 1.34 0.34 0.68 0 0 Z " fill="#E26F76" transform="translate(28,24)"/>
<path d="M0 0 C3.3 0.33 6.6 0.66 10 1 C9.67 2.32 9.34 3.64 9 5 C6.69 5.66 4.38 6.32 2 7 C1.34 4.69 0.68 2.38 0 0 Z " fill="#F5D9DA" transform="translate(33,25)"/>
<path d="M0 0 C-1.98 0.99 -3.96 1.98 -6 3 C-4.68 3.99 -3.36 4.98 -2 6 C-3.98 6 -5.96 6 -8 6 C-8.33 6.66 -8.66 7.32 -9 8 C-9.99 7.34 -10.98 6.68 -12 6 C-12.66 6.66 -13.32 7.32 -14 8 C-14.99 7.67 -15.98 7.34 -17 7 C-4.01474415 -1.33824805 -4.01474415 -1.33824805 0 0 Z " fill="#B4BBC3" transform="translate(39,12)"/>
<path d="M0 0 C0.99 0 1.98 0 3 0 C3 0.66 3 1.32 3 2 C2.01 2 1.02 2 0 2 C0 3.32 0 4.64 0 6 C0.66 6.33 1.32 6.66 2 7 C1.34 7 0.68 7 0 7 C0 10.3 0 13.6 0 17 C-0.66 17 -1.32 17 -2 17 C-2 13.7 -2 10.4 -2 7 C-2.66 6.67 -3.32 6.34 -4 6 C-3.34 6 -2.68 6 -2 6 C-1.855625 5.195625 -1.71125 4.39125 -1.5625 3.5625 C-1 1 -1 1 0 0 Z " fill="#3A3738" transform="translate(183,25)"/>
<path d="M0 0 C1.67542976 0.28604898 3.34385343 0.61781233 5 1 C5 2.65 5 4.3 5 6 C2.625 6.625 2.625 6.625 0 7 C-0.66 6.34 -1.32 5.68 -2 5 C-1.46428571 1.46428571 -1.46428571 1.46428571 0 0 Z " fill="#C0BFC0" transform="translate(372,58)"/>
<path d="M0 0 C0.99 0 1.98 0 3 0 C3 5.28 3 10.56 3 16 C2.34 16 1.68 16 1 16 C0.93941406 15.24074219 0.87882812 14.48148438 0.81640625 13.69921875 C0.73261719 12.70535156 0.64882812 11.71148437 0.5625 10.6875 C0.48128906 9.70136719 0.40007812 8.71523438 0.31640625 7.69921875 C0.08187441 4.90624401 0.08187441 4.90624401 -1 2 C-0.67 1.34 -0.34 0.68 0 0 Z " fill="#433F40" transform="translate(116,26)"/>
<path d="M0 0 C1.32 0.66 2.64 1.32 4 2 C3.09066991 3.27609323 2.17217147 4.54565553 1.25 5.8125 C0.73953125 6.52019531 0.2290625 7.22789063 -0.296875 7.95703125 C-2.02482358 10.02977691 -3.78526476 11.47375854 -6 13 C-4.66666667 10.33333333 -3.33333333 7.66666667 -2 5 C-2.66 5 -3.32 5 -4 5 C-4 4.34 -4 3.68 -4 3 C-2 1.375 -2 1.375 0 0 Z " fill="#ED6256" transform="translate(53,42)"/>
<path d="M0 0 C1.65 0 3.3 0 5 0 C3.68 0.33 2.36 0.66 1 1 C1 1.99 1 2.98 1 4 C3.475 4.99 3.475 4.99 6 6 C6 7.32 6 8.64 6 10 C3.69 10.33 1.38 10.66 -1 11 C-1 10.34 -1 9.68 -1 9 C0.65 9 2.3 9 4 9 C3.154375 8.2575 2.30875 7.515 1.4375 6.75 C0.633125 5.8425 -0.17125 4.935 -1 4 C-0.8125 1.6875 -0.8125 1.6875 0 0 Z " fill="#3A3738" transform="translate(159,31)"/>
<path d="M0 0 C2.125 0.375 2.125 0.375 4 1 C4.625 2.875 4.625 2.875 5 5 C4.34 5.66 3.68 6.32 3 7 C0.875 6.625 0.875 6.625 -1 6 C-1.625 4.125 -1.625 4.125 -2 2 C-1.34 1.34 -0.68 0.68 0 0 Z " fill="#BEBDBD" transform="translate(196,28)"/>
<path d="M0 0 C2.33294775 -0.04241723 4.66702567 -0.04092937 7 0 C8 1 8 1 8.09765625 3.06640625 C8.08605469 3.89011719 8.07445312 4.71382813 8.0625 5.5625 C8.05347656 6.38878906 8.04445312 7.21507813 8.03515625 8.06640625 C8.02355469 8.70449219 8.01195312 9.34257813 8 10 C7.67 10 7.34 10 7 10 C6.67 7.36 6.34 4.72 6 2 C5.01 2 4.02 2 3 2 C2.67 4.64 2.34 7.28 2 10 C1.34 10 0.68 10 0 10 C0 6.7 0 3.4 0 0 Z " fill="#727172" transform="translate(179,112)"/>
<path d="M0 0 C0.99 0 1.98 0 3 0 C3.33 1.32 3.66 2.64 4 4 C2.38007835 4.86375896 0.75388139 5.71575854 -0.875 6.5625 C-2.23238281 7.27599609 -2.23238281 7.27599609 -3.6171875 8.00390625 C-4.40351562 8.33261719 -5.18984375 8.66132812 -6 9 C-6.66 8.67 -7.32 8.34 -8 8 C-7.50628906 7.59007812 -7.01257813 7.18015625 -6.50390625 6.7578125 C-5.86324219 6.21898437 -5.22257812 5.68015625 -4.5625 5.125 C-3.92441406 4.59132813 -3.28632812 4.05765625 -2.62890625 3.5078125 C-0.89194996 2.0777243 -0.89194996 2.0777243 0 0 Z " fill="#FBE9E9" transform="translate(39,54)"/>
<path d="M0 0 C0 1.65 0 3.3 0 5 C-0.94875 4.979375 -1.8975 4.95875 -2.875 4.9375 C-5.90666283 4.77448174 -5.90666283 4.77448174 -8 6 C-8.33 5.01 -8.66 4.02 -9 3 C-6.38997624 -0.48003168 -4.1689578 -0.27793052 0 0 Z " fill="#171314" transform="translate(288,59)"/>
<path d="M0 0 C2.31 0.33 4.62 0.66 7 1 C6.02433888 2.16959987 5.044375 3.33561177 4.0625 4.5 C3.51722656 5.1496875 2.97195312 5.799375 2.41015625 6.46875 C1.94480469 6.9740625 1.47945312 7.479375 1 8 C0.67 8 0.34 8 0 8 C0 5.36 0 2.72 0 0 Z " fill="#FDF7F7" transform="translate(37,37)"/>
<path d="M0 0 C0.66 0.66 1.32 1.32 2 2 C1 3 1 3 -1.50390625 3.09765625 C-3.01791016 3.08025391 -3.01791016 3.08025391 -4.5625 3.0625 C-5.57441406 3.05347656 -6.58632813 3.04445313 -7.62890625 3.03515625 C-8.41136719 3.02355469 -9.19382812 3.01195313 -10 3 C-10.33 2.34 -10.66 1.68 -11 1 C-7.31620978 -0.17881287 -3.84458427 -0.21358801 0 0 Z " fill="#2F2B2C" transform="translate(339,88)"/>
<path d="M0 0 C0.33 1.32 0.66 2.64 1 4 C-2 6 -2 6 -3.8125 5.6875 C-4.534375 5.460625 -5.25625 5.23375 -6 5 C-7.99788438 4.65421232 -9.99759451 4.31856451 -12 4 C-12 3.67 -12 3.34 -12 3 C-11.30132812 2.86722656 -10.60265625 2.73445313 -9.8828125 2.59765625 C-8.51769531 2.33275391 -8.51769531 2.33275391 -7.125 2.0625 C-6.22007812 1.88847656 -5.31515625 1.71445313 -4.3828125 1.53515625 C-2.00043683 1.10036299 -2.00043683 1.10036299 0 0 Z " fill="#120E0F" transform="translate(263,84)"/>
<path d="M0 0 C0.61875 0.7734375 0.61875 0.7734375 1.25 1.5625 C-0.4 3.2125 -2.05 4.8625 -3.75 6.5625 C-4.41 6.2325 -5.07 5.9025 -5.75 5.5625 C-5.09 4.5725 -4.43 3.5825 -3.75 2.5625 C-5.73 3.5525 -5.73 3.5525 -7.75 4.5625 C-7 2.125 -7 2.125 -5.75 -0.4375 C-3.10614403 -1.80207082 -2.32864966 -1.91281936 0 0 Z " fill="#EA635D" transform="translate(37.75,54.4375)"/>
<path d="M0 0 C-0.99 2.97 -1.98 5.94 -3 9 C-4.32 8.34 -5.64 7.68 -7 7 C-3.86206897 0 -3.86206897 0 0 0 Z " fill="#FDF2F1" transform="translate(45,41)"/>
<path d="M0 0 C1.98 0.66 3.96 1.32 6 2 C3.47211993 4.79872437 1.79588866 6.45773019 -2 7 C-1.34 4.69 -0.68 2.38 0 0 Z " fill="#FDF5F4" transform="translate(47,40)"/>
<path d="M0 0 C0.78375 0.04125 1.5675 0.0825 2.375 0.125 C1.4159375 0.7128125 1.4159375 0.7128125 0.4375 1.3125 C-2.06278819 3.50972296 -2.27450425 4.88291433 -2.625 8.125 C-0.975 8.125 0.675 8.125 2.375 8.125 C2.045 8.785 1.715 9.445 1.375 10.125 C-0.275 9.795 -1.925 9.465 -3.625 9.125 C-4.25 5.75 -4.25 5.75 -4.625 2.125 C-2.625 0.125 -2.625 0.125 0 0 Z " fill="#656464" transform="translate(236.625,111.875)"/>
<path d="M0 0 C1.98 0 3.96 0 6 0 C5.34 1.98 4.68 3.96 4 6 C2.35 5.67 0.7 5.34 -1 5 C-0.67 3.35 -0.34 1.7 0 0 Z " fill="#3A3637" transform="translate(313,59)"/>
<path d="M0 0 C2.31 1.65 4.62 3.3 7 5 C2.59232396 6.10191901 1.1077065 5.58706842 -3 4 C-2.01 2.68 -1.02 1.36 0 0 Z " fill="#EBE7E9" transform="translate(27,17)"/>
<path d="M0 0 C1.32 0.66 2.64 1.32 4 2 C3.01 3.98 2.02 5.96 1 8 C0.67 7.01 0.34 6.02 0 5 C0.33 4.34 0.66 3.68 1 3 C-0.65 4.32 -2.3 5.64 -4 7 C-4.66 6.67 -5.32 6.34 -6 6 C-4.02 4.02 -2.04 2.04 0 0 Z " fill="#EF6B5E" transform="translate(44,38)"/>
<path d="M0 0 C1.65 0 3.3 0 5 0 C4.01 1.485 4.01 1.485 3 3 C2.60612212 5.32387947 2.26513915 7.65793749 2 10 C1.34 10 0.68 10 0 10 C0 6.7 0 3.4 0 0 Z " fill="#898888" transform="translate(143,112)"/>
<path d="M0 0 C-1.15585285 3.91211733 -2.35534962 6.8745041 -5 10 C-5.33 9.01 -5.66 8.02 -6 7 C-4.5625 4.3125 -4.5625 4.3125 -3 2 C-3.66 1.67 -4.32 1.34 -5 1 C-3 0 -3 0 0 0 Z " fill="#DCD8DC" transform="translate(35,64)"/>
<path d="M0 0 C0.33 0.66 0.66 1.32 1 2 C0.06558465 3.27310312 -0.87267111 4.543388 -1.8125 5.8125 C-2.33457031 6.52019531 -2.85664062 7.22789063 -3.39453125 7.95703125 C-4.83128877 9.78531393 -6.31815763 11.39896688 -8 13 C-8 9.00717059 -6.52191924 7.84668408 -4 4.8125 C-3.2575 3.91144531 -2.515 3.01039062 -1.75 2.08203125 C-1.1725 1.39496094 -0.595 0.70789062 0 0 Z " fill="#C13241" transform="translate(76,38)"/>
<path d="M0 0 C7.48291572 5.0022779 7.48291572 5.0022779 10 9 C9.67 9.66 9.34 10.32 9 11 C8.54109375 10.52949219 8.0821875 10.05898438 7.609375 9.57421875 C3.08450705 4.96631602 3.08450705 4.96631602 -2 1 C-1.34 0.67 -0.68 0.34 0 0 Z " fill="#AC293F" transform="translate(82,36)"/>
<path d="M0 0 C0.33 0.99 0.66 1.98 1 3 C1.99 3.33 2.98 3.66 4 4 C3.01 4 2.02 4 1 4 C1 6.64 1 9.28 1 12 C1.99 12 2.98 12 4 12 C4 12.66 4 13.32 4 14 C2.68 14 1.36 14 0 14 C0 10.7 0 7.4 0 4 C-0.66 3.67 -1.32 3.34 -2 3 C-1.34 3 -0.68 3 0 3 C0 2.01 0 1.02 0 0 Z " fill="#191415" transform="translate(189,28)"/>
<path d="M0 0 C1 3 1 3 0.22265625 5.04296875 C-0.16019531 5.75066406 -0.54304688 6.45835938 -0.9375 7.1875 C-1.31777344 7.90292969 -1.69804688 8.61835937 -2.08984375 9.35546875 C-2.54037109 10.16951172 -2.54037109 10.16951172 -3 11 C-3.99 9.68 -4.98 8.36 -6 7 C-5.34 6.34 -4.68 5.68 -4 5 C-3.67 5.33 -3.34 5.66 -3 6 C-2.01 4.02 -1.02 2.04 0 0 Z " fill="#323030" transform="translate(114,31)"/>
<path d="M0 0 C0.33 0 0.66 0 1 0 C0.88590407 1.45922693 0.75834456 2.91740598 0.625 4.375 C0.55539063 5.18710938 0.48578125 5.99921875 0.4140625 6.8359375 C0 9 0 9 -2 11 C-2.95465783 8.83032311 -3.14401212 7.43671207 -2.3984375 5.17578125 C-1.64129615 3.4315257 -0.82390802 1.71372869 0 0 Z " fill="#D5D9DD" transform="translate(56,80)"/>
<path d="M0 0 C0.33 0 0.66 0 1 0 C1 3.3 1 6.6 1 10 C0.01 10 -0.98 10 -2 10 C-2 9.34 -2 8.68 -2 8 C-2.66 7.67 -3.32 7.34 -4 7 C-3.525625 6.5875 -3.05125 6.175 -2.5625 5.75 C-0.83733482 3.817815 -0.43415125 2.51807725 0 0 Z " fill="#E6E7E7" transform="translate(57,72)"/>
<path d="M0 0 C0.33 0.99 0.66 1.98 1 3 C1.66 3.33 2.32 3.66 3 4 C2.34 4 1.68 4 1 4 C1 6.31 1 8.62 1 11 C1.99 11.33 2.98 11.66 4 12 C2.68 12 1.36 12 0 12 C0 9.36 0 6.72 0 4 C-0.66 3.67 -1.32 3.34 -2 3 C-1.34 3 -0.68 3 0 3 C0 2.01 0 1.02 0 0 Z " fill="#353434" transform="translate(118,109)"/>
<path d="M0 0 C1.98 0.495 1.98 0.495 4 1 C3.34 2.98 2.68 4.96 2 7 C1.67 6.34 1.34 5.68 1 5 C0.34 5 -0.32 5 -1 5 C-0.67 3.35 -0.34 1.7 0 0 Z " fill="#1A1617" transform="translate(308,74)"/>
<path d="M0 0 C2.64 0.33 5.28 0.66 8 1 C7.01 1.33 6.02 1.66 5 2 C5 2.99 5 3.98 5 5 C3.35 5 1.7 5 0 5 C0.33 4.01 0.66 3.02 1 2 C0.67 1.34 0.34 0.68 0 0 Z " fill="#343031" transform="translate(112,46)"/>
<path d="M0 0 C1.32 0 2.64 0 4 0 C4.33 1.32 4.66 2.64 5 4 C3.02 4 1.04 4 -1 4 C-0.67 2.68 -0.34 1.36 0 0 Z " fill="#C4C4C4" transform="translate(125,112)"/>
<path d="M0 0 C1.98 0.495 1.98 0.495 4 1 C4 1.66 4 2.32 4 3 C4.99 3.33 5.98 3.66 7 4 C4.125 4.625 4.125 4.625 1 5 C0.34 4.34 -0.32 3.68 -1 3 C-0.67 2.01 -0.34 1.02 0 0 Z " fill="#353233" transform="translate(329,59)"/>
<path d="M0 0 C3.91402949 1.26941497 5.79072873 2.51167694 8 6 C4.21032475 5.45861782 2.48587161 3.84099612 0 1 C0 0.67 0 0.34 0 0 Z " fill="#B5BDC5" transform="translate(26,80)"/>
</svg>
