<?xml version="1.0" standalone="no"?>
<!DOCTYPE svg PUBLIC "-//W3C//DTD SVG 20010904//EN"
 "http://www.w3.org/TR/2001/REC-SVG-20010904/DTD/svg10.dtd">
<svg version="1.0" xmlns="http://www.w3.org/2000/svg"
 width="1600.000000pt" height="886.000000pt" viewBox="0 0 1600.000000 886.000000"
 preserveAspectRatio="xMidYMid meet">

<g transform="translate(0.000000,886.000000) scale(0.100000,-0.100000)"
fill="#000000" stroke="none">
<path d="M6207 6243 c-12 -12 -7 -52 7 -60 7 -4 186 -177 397 -384 572 -560
630 -614 648 -611 9 2 35 6 58 9 157 19 443 -271 628 -637 25 -50 25 -50 5
-70 -19 -19 -20 -19 -102 16 -187 80 -355 136 -521 171 -59 13 -126 18 -242
18 -149 0 -165 -2 -239 -28 -112 -39 -155 -68 -238 -156 -215 -229 -339 -624
-388 -1236 -15 -195 -31 -610 -24 -629 16 -43 20 -39 619 574 99 102 241 247
315 323 104 107 131 140 122 149 -17 17 -15 99 4 144 65 157 306 372 576 514
l96 51 28 -26 c35 -33 64 -32 97 3 34 35 37 94 7 115 -19 13 -19 16 24 113 61
137 102 256 143 414 30 117 36 155 40 286 6 172 -7 257 -56 359 -73 155 -240
287 -481 380 -299 115 -641 170 -1215 195 -284 12 -300 12 -308 3z"/>
</g>
</svg>
