<?xml version="1.0" encoding="UTF-8"?>
<svg version="1.1" xmlns="http://www.w3.org/2000/svg" width="300" height="300">
<path d="M0 0 C0.75249023 0.21430664 1.50498047 0.42861328 2.28027344 0.64941406 C13.4744348 3.86311605 23.84731688 8.31158161 34 14 C34.66241699 14.37108887 35.32483398 14.74217773 36.00732422 15.12451172 C46.7463654 21.25331912 55.93488797 28.62644133 65 37 C65.74507812 37.66257813 66.49015625 38.32515625 67.2578125 39.0078125 C78.89833432 49.86905252 87.9088159 63.85136721 95 78 C95.52352051 79.02915527 95.52352051 79.02915527 96.05761719 80.07910156 C104.51023166 96.96095923 110.05321572 115.78217056 110.23828125 134.73046875 C110.24802979 135.55485443 110.25777832 136.37924011 110.26782227 137.22860718 C110.58391466 170.83752664 110.58391466 170.83752664 106 186 C105.66097656 187.24523437 105.32195312 188.49046875 104.97265625 189.7734375 C100.29111126 205.4008012 92.80865262 220.95509132 83 234 C82.06607422 235.24716797 82.06607422 235.24716797 81.11328125 236.51953125 C60.32751395 263.29227412 32.97075951 283.02348887 0 292 C-0.63905273 292.19319824 -1.27810547 292.38639648 -1.93652344 292.58544922 C-25.41905546 299.52372749 -56.62269625 299.06741987 -80 292 C-81.24523437 291.66097656 -82.49046875 291.32195312 -83.7734375 290.97265625 C-99.4008012 286.29111126 -114.95509132 278.80865262 -128 269 C-128.83144531 268.37738281 -129.66289062 267.75476563 -130.51953125 267.11328125 C-155.937459 247.37936254 -174.38859991 222.11950456 -184.375 191.375 C-184.71494995 190.33980225 -184.71494995 190.33980225 -185.06176758 189.28369141 C-189.36733601 175.12178789 -190.55425064 160.96428086 -190.4375 146.25 C-190.43412628 145.41994446 -190.43075256 144.58988892 -190.42727661 143.73468018 C-190.35136378 130.80962875 -189.65889116 118.4730119 -186 106 C-185.76925781 105.19079102 -185.53851563 104.38158203 -185.30078125 103.54785156 C-174.25083943 65.99851222 -148.42857704 32.84235435 -114 14 C-103.06674925 8.23184708 -91.93162292 3.29817219 -80 0 C-79.35804687 -0.19464844 -78.71609375 -0.38929687 -78.0546875 -0.58984375 C-54.61911236 -7.51193448 -23.32324148 -7.12383526 0 0 Z " fill="#2092CE" transform="translate(190,4)"/>
<path d="M0 0 C1.14046626 0.54481884 1.14046626 0.54481884 2.30397224 1.10064411 C8.49471059 4.56082174 8.49471059 4.56082174 9.8226738 8.34316063 C10.12878107 11.26537014 10.14494354 14.06920903 10.06591797 17.0065918 C10.0721669 18.10480255 10.07841583 19.20301331 10.08485413 20.33450317 C10.09555642 23.95742691 10.04355528 27.5766896 9.9921875 31.19921875 C9.99022298 33.71694473 9.99265427 36.23467765 9.9992981 38.75239563 C10.0061488 44.69893893 9.97527432 50.64446782 9.92392838 56.59072191 C9.82795824 67.8777768 9.81761259 79.16501319 9.81363297 90.45243263 C9.80477229 94.16370258 9.77330912 97.87426604 9.73849487 101.58537292 C9.7286631 103.85077717 9.71928942 106.11618347 9.71044922 108.3815918 C9.69487473 109.41801315 9.67930023 110.45443451 9.66325378 111.52226257 C9.66278549 112.46851501 9.6623172 113.41476746 9.66183472 114.38969421 C9.65121411 115.62380806 9.65121411 115.62380806 9.64037895 116.88285351 C10.08799826 119.51805981 10.90316841 120.39140117 13 122 C15.2143507 122.50155022 15.2143507 122.50155022 17.66796875 122.51171875 C18.56064453 122.54716797 19.45332031 122.58261719 20.37304688 122.61914062 C21.76620117 122.65297852 21.76620117 122.65297852 23.1875 122.6875 C24.12787109 122.72166016 25.06824219 122.75582031 26.03710938 122.79101562 C28.35795393 122.87348218 30.67842148 122.94263403 33 123 C33.08165496 125.20770805 33.13948488 127.41630425 33.1875 129.625 C33.22230469 130.85476562 33.25710937 132.08453125 33.29296875 133.3515625 C32.88148361 138.47592405 31.34643684 141.72442826 27.625 145.25 C20.45816146 150.02789236 12.32942199 150.00803263 4 149 C-3.70311644 146.86024543 -8.21546118 142.15737524 -13 136 C-13.66 135.34 -14.32 134.68 -15 134 C-15.58265625 134.44730469 -16.1653125 134.89460937 -16.765625 135.35546875 C-32.20134712 146.73810031 -50.0388155 150.83550031 -69 149 C-79.97318144 146.8726691 -89.58598405 141.23853673 -96 132 C-102.88863021 121.11005324 -103.47531647 107.31293521 -101.5 94.84375 C-98.92695014 84.43459374 -93.83455024 75.68363964 -84.90234375 69.5625 C-79.53103997 66.37950516 -74.02745758 64.53093571 -68 63 C-67.31679687 62.80535156 -66.63359375 62.61070312 -65.9296875 62.41015625 C-50.38261601 58.36082394 -32.84367561 59.91748086 -17 60 C-17.33 47.13 -17.66 34.26 -18 21 C-29.20446927 17.11519407 -29.20446927 17.11519407 -40.6875 15.8671875 C-41.54432373 15.86501221 -42.40114746 15.86283691 -43.28393555 15.8605957 C-44.18023682 15.86534912 -45.07653809 15.87010254 -46 15.875 C-46.93046143 15.87910889 -47.86092285 15.88321777 -48.81958008 15.88745117 C-64.12674496 15.90769857 -64.12674496 15.90769857 -78.9140625 19.4765625 C-81.31242818 20.07839958 -82.68447629 19.78581121 -85 19 C-87.48260659 11.39701733 -87.18508331 3.89688807 -87 -4 C-59.1775383 -11.96379842 -26.54423745 -12.97242302 0 0 Z " fill="#F9FBFD" transform="translate(189,71)"/>
<path d="M0 0 C0 12.21 0 24.42 0 37 C-14.86482494 43.93691831 -30.02303466 50.31692163 -46.6171875 46.37890625 C-51.87002223 44.14892924 -54.73370713 40.11630369 -57 35 C-57.680596 31.47072739 -57.70215296 28.08504101 -57.625 24.5 C-57.64433594 23.60152344 -57.66367188 22.70304687 -57.68359375 21.77734375 C-57.63718447 15.40070887 -56.23763416 10.85315235 -52 6 C-45.99991374 1.26839993 -39.4294711 0.83340763 -32.0625 0.4375 C-31.29631348 0.3950415 -30.53012695 0.35258301 -29.74072266 0.30883789 C-19.82870167 -0.18251204 -9.92169532 -0.06279554 0 0 Z " fill="#2192CE" transform="translate(172,151)"/>
</svg>
