<?xml version="1.0" encoding="UTF-8"?>
<svg version="1.1" xmlns="http://www.w3.org/2000/svg" width="200" height="200">
<path d="M0 0 C66 0 132 0 200 0 C200 66 200 132 200 200 C134 200 68 200 0 200 C0 134 0 68 0 0 Z " fill="#7746D3" transform="translate(0,0)"/>
<path d="M0 0 C0 1.98 0 3.96 0 6 C-1.84851563 6.07347656 -1.84851563 6.07347656 -3.734375 6.1484375 C-18.83490446 5.63610928 -18.83490446 5.63610928 -32 10 C-22.14019076 12.21206401 -12.44742124 12.30794397 -2.40161133 12.26074219 C0.29694301 12.25006157 2.99482571 12.26066803 5.69335938 12.2734375 C15.96972041 12.28050199 25.85603837 11.70278144 36 10 C32.3162378 8.45620868 28.96435532 7.55316586 25 7 C25 5.35 25 3.7 25 2 C31.48717752 1.72394989 37.70992988 2.31484213 43.5625 5.3125 C45 7 45 7 45.25 9.6875 C45.1675 10.450625 45.085 11.21375 45 12 C44.01 12.33 43.02 12.66 42 13 C41.27092645 14.6403274 40.61240436 16.31264019 40 18 C39.09357338 19.56741153 38.14558986 21.11130266 37.1640625 22.6328125 C36.59969482 23.51227539 36.03532715 24.39173828 35.45385742 25.29785156 C34.85033447 26.23081055 34.24681152 27.16376953 33.625 28.125 C33.00665283 29.09405273 32.38830566 30.06310547 31.7512207 31.06152344 C28.69512398 35.84728738 25.60569702 40.60535079 22.44140625 45.3203125 C21.89210449 46.15288574 21.34280273 46.98545898 20.77685547 47.84326172 C19.74891907 49.39985112 18.70586641 50.94660775 17.64501953 52.48095703 C14.44729252 57.36309254 13.4241447 61.06630083 13.42700195 66.92480469 C13 69 13 69 11.16455078 70.26953125 C8.23519742 71.25809715 5.64941395 71.26427475 2.5625 71.25 C1.45003906 71.25515625 0.33757812 71.2603125 -0.80859375 71.265625 C-3.947009 71.00441051 -6.16835425 70.33378454 -9 69 C-8.99242676 68.41226807 -8.98485352 67.82453613 -8.97705078 67.21899414 C-9.27749274 59.17705964 -12.48261116 54.01435316 -16.875 47.4375 C-17.55030762 46.39408447 -18.22561523 45.35066895 -18.92138672 44.27563477 C-20.28782603 42.16808405 -21.6622528 40.06568887 -23.04492188 37.96875 C-24.80633663 35.29407425 -26.54278433 32.60587017 -28.265625 29.90625 C-30.04758061 27.11903579 -31.83044162 24.33266199 -33.6328125 21.55859375 C-34.01598633 20.96804199 -34.39916016 20.37749023 -34.79394531 19.76904297 C-35.64037293 18.52750157 -36.52956635 17.31456332 -37.44824219 16.12548828 C-41.04656426 11.45856609 -41.04656426 11.45856609 -40.78955078 8.92749023 C-39.43461654 5.61975807 -37.08468157 4.65250798 -34 3 C-23.06649135 -0.52626519 -11.34193758 -0.13610325 0 0 Z " fill="#F4F0FB" transform="translate(98,65)"/>
<path d="M0 0 C1.00788574 0.10610596 1.00788574 0.10610596 2.03613281 0.21435547 C10.21638757 0.99349256 18.3445068 1.15412598 26.55273438 1.13037109 C28.73314475 1.1250412 30.91334608 1.13033468 33.09375 1.13671875 C42.7637676 1.1408003 52.35724228 0.71433862 62 0 C60.73185668 3.40298182 59.27619337 6.34225742 57.27734375 9.37109375 C56.74270508 10.18666748 56.20806641 11.00224121 55.65722656 11.8425293 C55.0897168 12.69886963 54.52220703 13.55520996 53.9375 14.4375 C52.76398248 16.22373472 51.59080744 18.01019448 50.41796875 19.796875 C49.83966309 20.67537109 49.26135742 21.55386719 48.66552734 22.45898438 C45.60566491 27.12727053 42.61133665 31.83733908 39.609375 36.54296875 C38 39 38 39 37 40 C36.76807135 41.51469448 36.58784762 43.03754562 36.4375 44.5625 C36.293125 46.026875 36.14875 47.49125 36 49 C32.7 49 29.4 49 26 49 C25.896875 47.700625 25.79375 46.40125 25.6875 45.0625 C24.09189752 37.16205162 19.13406252 30.98083674 14.66308594 24.44580078 C11.6553579 20.02251547 8.73716584 15.54093241 5.8125 11.0625 C4.94757935 9.75659912 4.94757935 9.75659912 4.06518555 8.42431641 C3.53449463 7.61526855 3.00380371 6.8062207 2.45703125 5.97265625 C1.98241455 5.25343994 1.50779785 4.53422363 1.01879883 3.79321289 C0 2 0 2 0 0 Z " fill="#7949D4" transform="translate(69,82)"/>
<path d="M0 0 C1.65 0 3.3 0 5 0 C5 4.29 5 8.58 5 13 C3.68 13.33 2.36 13.66 1 14 C2.98 15.65 4.96 17.3 7 19 C10.37503669 17.8141763 12.64722731 16.72426311 15 14 C13.68 13.67 12.36 13.34 11 13 C11 8.71 11 4.42 11 0 C12.65 0 14.3 0 16 0 C16 2.64 16 5.28 16 8 C19.3 8 22.6 8 26 8 C26.495 9.98 26.495 9.98 27 12 C24.54150508 14.23013669 22.07743809 16.45321022 19.6015625 18.6640625 C18.12057205 19.99384071 16.6494113 21.33527915 15.2109375 22.7109375 C12.85292964 24.89241001 11.35922784 25.95190666 8.140625 26.3828125 C4.1496991 25.89635636 2.84226476 24.60466074 0 21.8125 C-1.28003906 20.58660156 -1.28003906 20.58660156 -2.5859375 19.3359375 C-3.38257812 18.56507813 -4.17921875 17.79421875 -5 17 C-6.97132378 15.29359721 -8.97957683 13.64823995 -11 12 C-10.67 10.68 -10.34 9.36 -10 8 C-6.7 8 -3.4 8 0 8 C0 5.36 0 2.72 0 0 Z " fill="#F8F6FC" transform="translate(92,140)"/>
<path d="M0 0 C5.28 0 10.56 0 16 0 C16.020625 2.454375 16.04125 4.90875 16.0625 7.4375 C16.071604 8.21150146 16.08070801 8.98550293 16.09008789 9.78295898 C16.09724913 11.52221717 16.05024702 13.26145304 16 15 C15 16 15 16 11.875 16.1328125 C10.59625 16.13023438 9.3175 16.12765625 8 16.125 C6.72125 16.12757812 5.4425 16.13015625 4.125 16.1328125 C1 16 1 16 0 15 C-0.07320163 12.4672235 -0.09227569 9.96896082 -0.0625 7.4375 C-0.041875 4.983125 -0.02125 2.52875 0 0 Z " fill="#F4F0FB" transform="translate(76,47)"/>
<path d="M0 0 C1.27875 0.00257812 2.5575 0.00515625 3.875 0.0078125 C5.15375 0.00523438 6.4325 0.00265625 7.75 0 C10.875 0.1328125 10.875 0.1328125 11.875 1.1328125 C11.97409302 3.46441305 12.00470504 5.79911192 12 8.1328125 C12.00386719 10.0509375 12.00386719 10.0509375 12.0078125 12.0078125 C11.875 15.1328125 11.875 15.1328125 10.875 16.1328125 C8.34450598 16.20594817 5.84195163 16.22528777 3.3125 16.1953125 C2.60158203 16.19080078 1.89066406 16.18628906 1.15820312 16.18164062 C-0.60290013 16.16982114 -2.36396036 16.15188513 -4.125 16.1328125 C-4.15185095 13.65357449 -4.17176547 11.1746241 -4.1875 8.6953125 C-4.20006836 7.63473633 -4.20006836 7.63473633 -4.21289062 6.55273438 C-4.22153588 4.74587691 -4.17720011 2.93893647 -4.125 1.1328125 C-3.125 0.1328125 -3.125 0.1328125 0 0 Z " fill="#F6F2FC" transform="translate(107.125,56.8671875)"/>
<path d="M0 0 C1.27875 0.00257812 2.5575 0.00515625 3.875 0.0078125 C5.15375 0.00523438 6.4325 0.00265625 7.75 0 C10.875 0.1328125 10.875 0.1328125 11.875 1.1328125 C11.94813567 3.66330652 11.96747527 6.16586087 11.9375 8.6953125 C11.93298828 9.40623047 11.92847656 10.11714844 11.92382812 10.84960938 C11.91200864 12.61071263 11.89407263 14.37177286 11.875 16.1328125 C9.39576199 16.15966345 6.9168116 16.17957797 4.4375 16.1953125 C3.73044922 16.20369141 3.02339844 16.21207031 2.29492188 16.22070312 C0.48806441 16.22934838 -1.31887603 16.18501261 -3.125 16.1328125 C-4.125 15.1328125 -4.125 15.1328125 -4.2578125 12.0078125 C-4.25523438 10.7290625 -4.25265625 9.4503125 -4.25 8.1328125 C-4.25257812 6.8540625 -4.25515625 5.5753125 -4.2578125 4.2578125 C-4.08423261 0.17357989 -4.08423261 0.17357989 0 0 Z " fill="#F6F2FC" transform="translate(101.125,32.8671875)"/>
<path d="M0 0 C1.65 0 3.3 0 5 0 C5 1.65 5 3.3 5 5 C3.35 5 1.7 5 0 5 C0 3.35 0 1.7 0 0 Z " fill="#8151DB" transform="translate(108,63)"/>
<path d="M0 0 C1.65 0 3.3 0 5 0 C5 1.65 5 3.3 5 5 C3.35 5 1.7 5 0 5 C0 3.35 0 1.7 0 0 Z " fill="#8453DE" transform="translate(103,39)"/>
<path d="M0 0 C1.32 0 2.64 0 4 0 C4 1.65 4 3.3 4 5 C2.68 5 1.36 5 0 5 C0 3.35 0 1.7 0 0 Z " fill="#7B4AD8" transform="translate(82,52)"/>
<path d="M0 0 C6.625 0.75 6.625 0.75 10 3 C7.8125 3.75 7.8125 3.75 5 4 C2.1875 2.0625 2.1875 2.0625 0 0 Z " fill="#9E79E4" transform="translate(125,72)"/>
</svg>
